<svg xmlns="http://www.w3.org/2000/svg" width="64" height="56" viewBox="0 0 64 56">
  <defs>
    <pattern id="p" patternUnits="userSpaceOnUse" width="64" height="56">
      <rect width="64" height="56" fill="#fce4ec"/>

      <!-- Heart A at (8, 4) -->
      <rect x="12" y="4" width="4" height="4" fill="#f48fb1"/>
      <rect x="16" y="4" width="4" height="4" fill="#f48fb1"/>
      <rect x="24" y="4" width="4" height="4" fill="#f48fb1"/>
      <rect x="28" y="4" width="4" height="4" fill="#f48fb1"/>

      <rect x="8" y="8" width="4" height="4" fill="#f48fb1"/>
      <rect x="12" y="8" width="4" height="4" fill="#f8bbd0"/>
      <rect x="16" y="8" width="4" height="4" fill="#f48fb1"/>
      <rect x="20" y="8" width="4" height="4" fill="#f48fb1"/>
      <rect x="24" y="8" width="4" height="4" fill="#f48fb1"/>
      <rect x="28" y="8" width="4" height="4" fill="#f48fb1"/>
      <rect x="32" y="8" width="4" height="4" fill="#f48fb1"/>

      <rect x="8" y="12" width="4" height="4" fill="#f48fb1"/>
      <rect x="12" y="12" width="4" height="4" fill="#f48fb1"/>
      <rect x="16" y="12" width="4" height="4" fill="#f48fb1"/>
      <rect x="20" y="12" width="4" height="4" fill="#f48fb1"/>
      <rect x="24" y="12" width="4" height="4" fill="#f48fb1"/>
      <rect x="28" y="12" width="4" height="4" fill="#f48fb1"/>
      <rect x="32" y="12" width="4" height="4" fill="#f48fb1"/>

      <rect x="12" y="16" width="4" height="4" fill="#f48fb1"/>
      <rect x="16" y="16" width="4" height="4" fill="#f48fb1"/>
      <rect x="20" y="16" width="4" height="4" fill="#f48fb1"/>
      <rect x="24" y="16" width="4" height="4" fill="#f48fb1"/>
      <rect x="28" y="16" width="4" height="4" fill="#f48fb1"/>

      <rect x="16" y="20" width="4" height="4" fill="#f48fb1"/>
      <rect x="20" y="20" width="4" height="4" fill="#f48fb1"/>
      <rect x="24" y="20" width="4" height="4" fill="#f48fb1"/>

      <rect x="20" y="24" width="4" height="4" fill="#f48fb1"/>

      <!-- Heart B at (40, 28) — offset by half tile -->
      <rect x="44" y="32" width="4" height="4" fill="#f48fb1"/>
      <rect x="48" y="32" width="4" height="4" fill="#f48fb1"/>
      <rect x="56" y="32" width="4" height="4" fill="#f48fb1"/>
      <rect x="60" y="32" width="4" height="4" fill="#f48fb1"/>

      <rect x="40" y="36" width="4" height="4" fill="#f48fb1"/>
      <rect x="44" y="36" width="4" height="4" fill="#f8bbd0"/>
      <rect x="48" y="36" width="4" height="4" fill="#f48fb1"/>
      <rect x="52" y="36" width="4" height="4" fill="#f48fb1"/>
      <rect x="56" y="36" width="4" height="4" fill="#f48fb1"/>
      <rect x="60" y="36" width="4" height="4" fill="#f48fb1"/>
      <rect x="0" y="36" width="4" height="4" fill="#f48fb1"/>

      <rect x="40" y="40" width="4" height="4" fill="#f48fb1"/>
      <rect x="44" y="40" width="4" height="4" fill="#f48fb1"/>
      <rect x="48" y="40" width="4" height="4" fill="#f48fb1"/>
      <rect x="52" y="40" width="4" height="4" fill="#f48fb1"/>
      <rect x="56" y="40" width="4" height="4" fill="#f48fb1"/>
      <rect x="60" y="40" width="4" height="4" fill="#f48fb1"/>
      <rect x="0" y="40" width="4" height="4" fill="#f48fb1"/>

      <rect x="44" y="44" width="4" height="4" fill="#f48fb1"/>
      <rect x="48" y="44" width="4" height="4" fill="#f48fb1"/>
      <rect x="52" y="44" width="4" height="4" fill="#f48fb1"/>
      <rect x="56" y="44" width="4" height="4" fill="#f48fb1"/>
      <rect x="60" y="44" width="4" height="4" fill="#f48fb1"/>

      <rect x="48" y="48" width="4" height="4" fill="#f48fb1"/>
      <rect x="52" y="48" width="4" height="4" fill="#f48fb1"/>
      <rect x="56" y="48" width="4" height="4" fill="#f48fb1"/>

      <rect x="52" y="52" width="4" height="4" fill="#f48fb1"/>
    </pattern>
  </defs>
  <rect width="64" height="56" fill="url(#p)"/>
</svg>
